<mxfile host="app.diagrams.net" modified="2023-04-11T00:22:25.906Z" agent="Mozilla/5.0 (Windows NT 10.0; Win64; x64) AppleWebKit/537.36 (KHTML, like Gecko) Chrome/112.0.0.0 Safari/537.36" etag="h1vh0aEGwW5oxUdgd_Z0" version="21.1.5" type="onedrive">
  <diagram name="Página-1" id="oeKwhq0iLsfZCvL0M4fU">
    <mxGraphModel grid="1" page="1" gridSize="10" guides="1" tooltips="1" connect="1" arrows="1" fold="1" pageScale="1" pageWidth="827" pageHeight="1169" math="0" shadow="0">
      <root>
        <mxCell id="0" />
        <mxCell id="1" parent="0" />
        <mxCell id="c3qakOvBkSti0q3zHIEz-1" value="Sistema de Streaming" style="swimlane;whiteSpace=wrap;html=1;" vertex="1" parent="1">
          <mxGeometry x="245" y="798" width="390" height="310" as="geometry" />
        </mxCell>
        <mxCell id="c3qakOvBkSti0q3zHIEz-2" value="" style="edgeStyle=orthogonalEdgeStyle;rounded=0;orthogonalLoop=1;jettySize=auto;html=1;dashed=1;dashPattern=8 8;" edge="1" parent="c3qakOvBkSti0q3zHIEz-1" source="c3qakOvBkSti0q3zHIEz-3" target="c3qakOvBkSti0q3zHIEz-7">
          <mxGeometry relative="1" as="geometry" />
        </mxCell>
        <mxCell id="c3qakOvBkSti0q3zHIEz-3" value="addFilme" style="ellipse;whiteSpace=wrap;html=1;" vertex="1" parent="c3qakOvBkSti0q3zHIEz-1">
          <mxGeometry x="275" y="42" width="85" height="50" as="geometry" />
        </mxCell>
        <mxCell id="c3qakOvBkSti0q3zHIEz-4" value="" style="edgeStyle=orthogonalEdgeStyle;rounded=0;orthogonalLoop=1;jettySize=auto;html=1;dashed=1;" edge="1" parent="c3qakOvBkSti0q3zHIEz-1" source="c3qakOvBkSti0q3zHIEz-5" target="c3qakOvBkSti0q3zHIEz-8">
          <mxGeometry relative="1" as="geometry" />
        </mxCell>
        <mxCell id="c3qakOvBkSti0q3zHIEz-5" value="addUsuario" style="ellipse;whiteSpace=wrap;html=1;" vertex="1" parent="c3qakOvBkSti0q3zHIEz-1">
          <mxGeometry x="35" y="240" width="91" height="52" as="geometry" />
        </mxCell>
        <mxCell id="c3qakOvBkSti0q3zHIEz-6" value="buscarFilme" style="ellipse;whiteSpace=wrap;html=1;" vertex="1" parent="c3qakOvBkSti0q3zHIEz-1">
          <mxGeometry x="35" y="42" width="91" height="50" as="geometry" />
        </mxCell>
        <mxCell id="c3qakOvBkSti0q3zHIEz-7" value="Verificar filme" style="ellipse;whiteSpace=wrap;html=1;" vertex="1" parent="c3qakOvBkSti0q3zHIEz-1">
          <mxGeometry x="267.5" y="122" width="100" height="50" as="geometry" />
        </mxCell>
        <mxCell id="c3qakOvBkSti0q3zHIEz-8" value="Verificar usuário" style="ellipse;whiteSpace=wrap;html=1;" vertex="1" parent="c3qakOvBkSti0q3zHIEz-1">
          <mxGeometry x="24.5" y="162" width="112" height="50" as="geometry" />
        </mxCell>
        <mxCell id="c3qakOvBkSti0q3zHIEz-9" value="&lt;font style=&quot;font-size: 24px;&quot;&gt;Casos de uso&lt;br&gt;&lt;/font&gt;" style="text;html=1;strokeColor=none;fillColor=none;align=center;verticalAlign=middle;whiteSpace=wrap;rounded=0;" vertex="1" parent="1">
          <mxGeometry x="40" y="720" width="280" height="30" as="geometry" />
        </mxCell>
        <mxCell id="c3qakOvBkSti0q3zHIEz-10" style="edgeStyle=orthogonalEdgeStyle;rounded=0;orthogonalLoop=1;jettySize=auto;html=1;exitX=1;exitY=0.3333333333333333;exitDx=0;exitDy=0;exitPerimeter=0;" edge="1" parent="1" source="c3qakOvBkSti0q3zHIEz-12" target="c3qakOvBkSti0q3zHIEz-6">
          <mxGeometry relative="1" as="geometry">
            <Array as="points">
              <mxPoint x="220" y="948" />
              <mxPoint x="220" y="865" />
            </Array>
          </mxGeometry>
        </mxCell>
        <mxCell id="c3qakOvBkSti0q3zHIEz-11" style="edgeStyle=orthogonalEdgeStyle;rounded=0;orthogonalLoop=1;jettySize=auto;html=1;exitX=1;exitY=0.3333333333333333;exitDx=0;exitDy=0;exitPerimeter=0;entryX=0;entryY=0.5;entryDx=0;entryDy=0;" edge="1" parent="1" source="c3qakOvBkSti0q3zHIEz-12" target="c3qakOvBkSti0q3zHIEz-5">
          <mxGeometry relative="1" as="geometry">
            <Array as="points">
              <mxPoint x="220" y="948" />
              <mxPoint x="220" y="1065" />
            </Array>
          </mxGeometry>
        </mxCell>
        <mxCell id="c3qakOvBkSti0q3zHIEz-12" value="Usuário" style="shape=umlActor;verticalLabelPosition=bottom;verticalAlign=top;html=1;outlineConnect=0;" vertex="1" parent="1">
          <mxGeometry x="121" y="928" width="30" height="60" as="geometry" />
        </mxCell>
        <mxCell id="c3qakOvBkSti0q3zHIEz-13" style="edgeStyle=orthogonalEdgeStyle;rounded=0;orthogonalLoop=1;jettySize=auto;html=1;exitX=0;exitY=0.3333333333333333;exitDx=0;exitDy=0;exitPerimeter=0;" edge="1" parent="1" source="c3qakOvBkSti0q3zHIEz-14" target="c3qakOvBkSti0q3zHIEz-3">
          <mxGeometry relative="1" as="geometry">
            <Array as="points">
              <mxPoint x="680" y="948" />
              <mxPoint x="680" y="860" />
            </Array>
          </mxGeometry>
        </mxCell>
        <mxCell id="c3qakOvBkSti0q3zHIEz-14" value="Administrador" style="shape=umlActor;verticalLabelPosition=bottom;verticalAlign=top;html=1;outlineConnect=0;" vertex="1" parent="1">
          <mxGeometry x="721" y="928" width="30" height="60" as="geometry" />
        </mxCell>
      </root>
    </mxGraphModel>
  </diagram>
</mxfile>
